{"glyphs":{":":{"x_min":0,"x_max":322,"ha":322,"o":"m 162 154 q 196 154 219 131 q 242 108 242 74 q 242 39 219 15 q 196 -8 162 -8 q 127 -8 104 16 q 80 40 80 74 q 80 106 104 130 q 128 154 162 154 z m 160 451 q 194 451 217 428 q 240 405 240 371 q 240 336 217 312 q 194 289 160 289 q 125 289 102 313 q 78 336 78 371 q 78 403 103 427 q 127 451 160 451 z"},"$":{"x_min":0,"x_max":622,"ha":622,"o":"m 329 281 l 329 38 q 382 43 412 74 q 442 105 442 156 q 442 208 416 236 q 390 265 329 281 z m 290 661 q 243 657 215 627 q 187 598 187 552 q 187 508 211 481 q 235 454 290 437 z m 290 794 l 341 794 l 341 705 q 438 700 496 659 q 553 618 553 554 q 553 521 535 501 q 517 481 488 481 q 460 481 442 500 q 424 520 424 550 q 424 568 430 586 q 437 604 450 623 q 437 640 409 650 q 382 660 341 662 l 341 422 q 466 386 521 333 q 575 280 575 196 q 575 106 511 52 q 446 -1 329 -9 l 329 -114 l 278 -114 l 278 -9 q 169 -3 105 45 q 41 94 41 169 q 41 206 59 229 q 78 253 106 253 q 138 253 155 233 q 173 214 173 179 q 173 156 164 137 q 155 119 138 106 q 152 76 188 58 q 225 40 278 37 l 278 293 q 162 327 111 377 q 59 428 59 508 q 59 595 120 648 q 181 700 290 707 z"},"?":{"x_min":0,"x_max":527,"ha":527,"o":"m 213 154 q 247 154 270 131 q 293 108 293 74 q 293 39 270 16 q 247 -8 213 -8 q 179 -8 155 16 q 131 40 131 74 q 131 106 155 130 q 180 154 213 154 z m 234 211 l 188 211 l 188 239 q 188 277 198 305 q 208 333 232 364 q 238 371 250 386 q 315 459 315 547 q 315 615 292 649 q 269 683 223 683 q 196 683 176 669 q 155 655 151 634 q 170 623 180 606 q 189 589 189 566 q 189 538 173 521 q 156 504 129 504 q 102 504 82 526 q 63 547 63 580 q 63 644 116 685 q 169 727 253 727 q 347 727 406 677 q 465 626 465 546 q 465 500 448 464 q 432 428 395 397 q 374 379 333 353 q 292 326 275 313 q 252 295 243 275 q 234 254 234 219 z"},"<":{"x_min":0,"x_max":833,"ha":833,"o":"m 704 583 l 704 476 l 268 298 l 704 120 l 704 13 l 129 250 l 129 347 z"},"'":{"x_min":0,"x_max":178,"ha":178,"o":"m 99 416 l 79 416 l 40 641 q 39 647 39 651 q 38 656 38 659 q 38 685 52 700 q 65 715 89 715 q 112 715 126 701 q 139 687 139 661 q 139 653 139 649 q 139 645 138 641 z"},"=":{"x_min":0,"x_max":833,"ha":833,"o":"m 124 242 l 709 242 l 709 145 l 124 145 z m 124 452 l 709 452 l 709 355 l 124 355 z"},"a":{"x_min":0,"x_max":581,"ha":581,"o":"m 338 233 q 241 216 208 193 q 175 169 175 126 q 175 93 192 73 q 209 53 238 53 q 266 53 292 70 q 317 86 338 117 z m 485 335 l 485 140 q 485 88 492 76 q 500 64 520 64 q 532 64 542 70 q 552 76 561 88 l 586 69 q 559 27 526 9 q 494 -9 445 -9 q 400 -9 374 12 q 348 33 346 72 q 313 31 269 11 q 224 -9 165 -9 q 101 -9 65 22 q 30 52 30 108 q 30 166 72 198 q 115 229 234 253 q 255 257 285 262 q 338 270 338 291 l 338 349 q 338 404 319 427 q 300 450 256 450 q 231 450 211 444 q 190 438 176 428 q 180 412 182 401 q 184 390 184 381 q 184 346 165 325 q 146 304 113 304 q 86 304 70 321 q 53 337 53 365 q 53 419 117 456 q 181 493 281 493 q 383 493 434 454 q 485 415 485 337 z"},"L":{"x_min":0,"x_max":664,"ha":664,"o":"m 37 718 l 46 718 q 173 711 208 711 q 231 711 267 712 q 302 714 384 718 l 384 671 l 375 671 q 320 671 304 656 q 288 641 288 584 l 288 56 l 431 56 q 524 56 561 95 q 599 134 609 245 l 653 245 q 649 174 643 113 q 637 52 630 -4 q 511 -1 435 0 q 358 2 323 2 q 205 2 146 1 q 87 1 37 0 l 37 47 q 92 47 107 62 q 122 77 122 134 l 122 584 q 122 641 107 656 q 92 670 37 671 z"},"3":{"x_min":0,"x_max":622,"ha":622,"o":"m 323 365 l 323 358 q 454 354 515 312 q 577 270 577 185 q 577 100 499 45 q 421 -9 296 -9 q 182 -9 108 38 q 35 84 35 154 q 35 188 54 210 q 73 231 103 231 q 132 231 152 208 q 172 186 172 151 q 172 130 166 110 q 160 89 160 87 q 160 68 191 55 q 221 41 267 41 q 338 41 380 82 q 421 123 421 193 q 421 265 379 297 q 338 330 246 330 l 217 330 l 201 330 l 201 381 q 299 384 343 420 q 387 457 387 535 q 387 595 356 627 q 326 660 270 660 q 242 660 216 651 q 190 642 173 626 q 182 606 185 592 q 189 577 189 563 q 189 528 170 508 q 152 487 121 487 q 93 487 77 505 q 60 522 60 551 q 60 614 130 661 q 199 708 297 708 q 407 708 473 660 q 540 612 540 535 q 540 464 487 422 q 433 380 323 365 z"},";":{"x_min":0,"x_max":322,"ha":322,"o":"m 88 -168 l 66 -132 q 117 -100 142 -68 q 167 -36 168 0 q 167 0 166 0 q 148 -4 139 -4 q 105 -4 85 18 q 64 40 64 75 q 64 113 88 136 q 112 159 152 159 q 192 159 218 128 q 243 97 243 48 q 243 -17 205 -71 q 166 -125 88 -168 z m 156 451 q 190 451 213 428 q 236 405 236 371 q 236 336 213 312 q 190 289 156 289 q 122 289 98 312 q 74 336 74 370 q 74 403 98 427 q 123 451 156 451 z"},"J":{"x_min":0,"x_max":527,"ha":527,"o":"m 139 718 q 222 714 260 712 q 297 711 321 711 q 354 711 478 717 l 492 718 l 492 671 q 439 671 425 656 q 410 642 410 584 l 410 135 q 410 7 351 -60 q 292 -128 181 -128 q 98 -128 45 -85 q -8 -42 -8 24 q -8 60 16 84 q 39 109 73 109 q 107 109 129 87 q 151 64 151 31 q 151 2 138 -18 q 126 -38 99 -51 q 104 -66 121 -75 q 138 -84 161 -84 q 204 -84 224 -55 q 243 -26 243 40 l 243 150 l 243 584 q 243 643 226 657 q 208 671 148 671 l 139 671 z"},"V":{"x_min":0,"x_max":674,"ha":674,"o":"m -14 718 q 37 715 76 713 q 115 712 141 712 q 172 712 214 713 q 255 715 306 718 l 306 671 q 266 669 252 661 q 238 653 238 633 q 238 627 240 619 q 242 610 248 594 l 402 161 l 548 592 q 552 605 555 617 q 557 629 557 637 q 557 654 539 663 q 521 671 482 671 l 482 718 q 494 717 516 716 q 567 712 584 712 q 599 712 649 715 q 672 717 684 718 l 684 671 q 648 667 635 658 q 622 649 613 625 l 457 177 q 448 150 429 102 q 410 54 384 -9 l 296 -2 l 65 610 q 49 651 34 661 q 20 671 -10 671 l -14 671 z"},"\"":{"x_min":0,"x_max":345,"ha":345,"o":"m 265 416 l 245 416 l 206 641 q 205 647 205 651 q 204 656 204 659 q 204 685 218 700 q 231 715 255 715 q 279 715 292 700 q 306 686 306 661 q 306 658 306 654 q 305 649 304 641 z m 99 416 l 79 416 l 40 641 q 40 645 39 648 q 39 652 39 659 q 39 685 53 700 q 66 715 89 715 q 112 715 126 701 q 139 687 139 661 q 139 653 139 649 q 139 645 138 641 z"},"7":{"x_min":0,"x_max":622,"ha":622,"o":"m 71 708 q 123 703 184 700 q 245 698 367 698 q 431 698 482 699 q 533 700 575 702 l 596 675 l 466 416 q 408 301 391 243 q 373 185 373 129 l 373 66 q 373 45 367 36 q 362 26 347 16 q 322 -1 289 -13 q 255 -25 236 -25 q 225 -25 220 -20 q 216 -15 216 -2 q 216 79 234 142 q 252 205 303 284 l 495 581 q 490 581 481 580 q 473 579 469 579 l 327 579 l 190 579 q 140 579 129 564 q 118 549 118 489 l 118 472 l 71 472 l 71 658 z"},"S":{"x_min":0,"x_max":658,"ha":658,"o":"m 522 666 l 530 709 l 566 709 l 566 610 l 566 536 l 566 494 l 527 494 q 519 581 472 629 q 425 677 350 677 q 294 677 261 646 q 227 615 227 565 q 227 522 251 496 q 275 470 369 435 q 514 382 558 334 q 601 286 601 205 q 601 107 529 49 q 457 -9 335 -9 q 271 -9 218 10 q 166 30 120 70 l 108 15 l 73 15 l 73 67 l 73 144 l 73 207 l 73 259 l 114 259 q 121 157 176 98 q 232 39 321 39 q 377 39 408 68 q 440 98 440 149 q 440 194 415 221 q 391 248 318 275 q 307 279 284 288 q 190 321 149 351 q 106 382 87 421 q 67 460 67 512 q 67 612 137 669 q 207 727 329 727 q 384 727 432 712 q 481 696 522 666 z"},"}":{"x_min":0,"x_max":500,"ha":500,"o":"m 84 740 q 199 740 241 705 q 283 669 283 571 l 283 477 q 283 396 311 366 q 338 336 414 329 l 414 292 q 338 285 311 255 q 283 225 283 144 l 283 50 q 283 -47 242 -83 q 200 -119 90 -119 l 84 -119 l 84 -90 q 142 -89 164 -63 q 186 -38 186 39 l 186 105 q 186 215 212 255 q 238 294 308 310 q 238 326 212 366 q 186 406 186 516 l 186 581 q 186 657 164 683 q 142 709 84 710 z"},"Z":{"x_min":0,"x_max":687,"ha":687,"o":"m 44 718 q 74 717 101 717 q 128 717 156 717 l 647 718 l 647 714 l 239 48 l 450 48 q 547 48 580 84 q 614 120 626 232 l 667 232 l 653 0 l 20 0 l 20 4 l 429 669 l 236 669 q 141 669 111 638 q 80 606 75 514 l 33 514 z"},"x":{"x_min":0,"x_max":583,"ha":583,"o":"m 4 484 q 43 482 79 481 q 114 480 145 480 q 177 480 259 483 q 280 483 291 484 l 291 442 l 287 442 q 269 442 259 436 q 250 431 250 419 q 250 414 252 408 q 255 403 260 396 l 323 310 l 401 395 q 407 402 410 408 q 413 414 413 419 q 413 429 402 436 q 392 442 373 442 l 369 442 l 369 484 q 376 483 390 483 q 445 480 466 480 q 479 480 522 482 q 542 483 554 484 l 554 442 q 508 442 461 393 l 459 391 l 351 279 l 513 77 q 528 58 543 51 q 558 43 578 42 l 578 0 q 535 2 502 3 q 469 4 453 4 q 418 4 326 1 q 306 0 295 0 l 295 42 l 305 42 q 322 42 330 48 q 339 53 339 64 q 339 70 336 76 q 333 83 328 91 l 250 194 l 161 98 q 153 89 149 81 q 145 73 145 66 q 145 55 157 49 q 168 42 188 42 l 192 42 l 192 0 q 181 0 161 1 q 108 4 91 4 q 80 4 39 2 q 12 0 -4 0 l -4 42 q 25 44 43 52 q 61 59 75 73 l 222 225 l 75 406 l 73 408 q 48 440 4 442 z"},")":{"x_min":0,"x_max":432,"ha":432,"o":"m 44 750 q 197 633 269 513 q 341 394 341 256 q 341 104 265 -15 q 188 -134 34 -224 l 14 -194 q 128 -111 181 -3 q 235 104 235 252 q 235 386 183 500 q 131 613 22 720 z"},"&":{"x_min":0,"x_max":805,"ha":805,"o":"m 331 444 q 365 459 382 486 q 399 513 399 551 q 399 605 373 642 q 346 678 307 678 q 274 678 253 654 q 233 630 233 591 q 233 543 259 504 q 286 464 331 444 z m 251 352 q 222 338 207 306 q 192 275 192 227 q 192 150 226 106 q 260 62 319 62 q 354 62 388 77 q 421 91 447 118 q 380 248 341 292 q 302 335 251 352 z m 375 416 q 426 397 466 354 q 505 311 553 217 q 580 252 595 287 q 611 322 611 347 q 611 367 599 375 q 586 382 537 383 l 537 428 q 569 426 600 425 q 630 424 659 424 q 682 424 709 425 q 737 426 767 428 l 767 383 q 715 383 699 376 q 684 369 675 351 q 671 344 664 325 q 627 234 575 172 q 598 125 623 104 q 648 82 682 82 q 710 82 733 101 q 756 121 773 160 l 808 145 q 780 68 731 30 q 683 -9 616 -9 q 574 -9 537 12 q 500 34 472 75 q 428 34 371 13 q 313 -9 251 -9 q 155 -9 96 45 q 37 99 37 186 q 37 253 78 303 q 119 352 201 385 q 151 416 126 455 q 102 495 102 545 q 102 626 164 677 q 227 727 327 727 q 419 727 469 689 q 519 651 519 580 q 519 523 483 483 q 447 442 375 416 z"},"_":{"x_min":0,"x_max":500,"ha":500,"o":"m 0 -136 l 500 -136 l 500 -236 l 0 -236 z"},"v":{"x_min":0,"x_max":540,"ha":540,"o":"m -2 484 q 51 481 78 480 q 105 479 122 479 q 151 479 188 480 q 225 481 273 484 l 273 442 q 237 442 224 436 q 211 430 211 415 q 211 408 217 391 q 218 388 218 387 l 320 117 l 421 390 q 424 397 425 403 q 427 409 427 413 q 427 430 415 436 q 404 442 369 442 l 369 484 q 393 482 415 481 q 437 480 455 480 q 473 480 495 481 q 517 482 540 484 l 540 442 q 510 442 496 432 q 482 423 471 395 l 372 138 l 371 136 q 332 35 310 -9 l 219 -2 l 56 401 q 46 427 34 435 q 22 442 -2 442 z"},"O":{"x_min":0,"x_max":812,"ha":812,"o":"m 404 678 q 316 678 267 594 q 217 510 217 359 q 217 207 267 123 q 317 39 408 39 q 496 39 545 124 q 594 208 594 359 q 594 511 544 594 q 494 678 404 678 z m 407 727 q 480 727 543 704 q 606 681 659 634 q 716 583 745 514 q 774 444 774 359 q 774 275 743 204 q 712 133 654 82 q 602 38 538 14 q 474 -9 404 -9 q 332 -9 268 14 q 205 38 153 83 q 96 133 66 203 q 37 273 37 359 q 37 444 67 514 q 98 585 156 635 q 208 680 271 704 q 335 727 407 727 z"},"(":{"x_min":0,"x_max":432,"ha":432,"o":"m 397 750 l 418 719 q 305 637 251 530 q 197 423 197 280 q 197 142 248 28 q 299 -85 410 -194 l 387 -224 q 234 -107 162 12 q 91 131 91 269 q 91 421 167 541 q 243 661 397 750 z"},"C":{"x_min":0,"x_max":740,"ha":740,"o":"m 631 650 l 638 700 l 678 700 q 677 663 676 629 q 675 596 675 567 l 675 493 l 675 443 l 636 443 q 628 556 573 616 q 519 677 426 677 q 320 677 269 599 q 218 521 218 360 q 218 209 273 131 q 328 53 433 53 q 517 53 571 94 q 625 135 643 213 l 688 213 q 670 104 597 47 q 523 -9 397 -9 q 237 -9 137 91 q 37 190 37 351 q 37 519 140 623 q 242 727 408 727 q 474 727 533 707 q 592 686 631 650 z"},"W":{"x_min":0,"x_max":1067,"ha":1067,"o":"m -10 718 q 39 715 75 713 q 112 712 137 712 q 171 712 213 713 q 254 715 301 718 l 301 671 q 267 670 253 662 q 240 654 240 634 q 240 626 242 616 q 244 606 248 594 l 385 164 l 515 541 l 494 607 q 480 649 465 659 q 450 669 412 671 l 412 718 q 463 715 502 713 q 540 712 564 712 q 600 712 643 713 q 686 715 734 718 l 734 671 q 690 668 676 659 q 661 650 661 629 q 661 623 663 614 q 665 605 668 595 l 801 171 l 940 588 q 944 600 946 611 q 948 623 948 630 q 948 651 932 660 q 915 669 870 671 l 870 718 q 877 717 890 717 q 955 712 977 712 q 994 712 1045 716 q 1066 717 1077 718 l 1077 671 q 1047 669 1032 659 q 1017 649 1008 624 l 856 189 q 841 146 822 96 q 804 46 783 -9 l 695 1 l 540 472 l 424 143 q 409 100 396 63 q 382 27 367 -9 l 278 1 l 66 616 q 54 653 39 662 q 25 671 -10 671 z"},"A":{"x_min":0,"x_max":672,"ha":672,"o":"m 277 550 l 188 299 l 362 299 z m 292 727 l 380 727 l 611 98 q 622 69 638 58 q 654 48 690 47 l 690 0 q 624 3 588 4 q 552 5 529 5 q 506 5 470 4 q 434 3 363 0 l 363 47 q 405 50 419 57 q 432 64 432 81 q 432 91 432 95 q 431 99 430 102 l 379 250 l 172 250 l 128 126 l 127 123 q 117 93 117 80 q 117 63 129 56 q 142 49 178 47 l 178 0 q 136 3 115 4 q 93 5 79 5 q 66 5 45 4 q 24 3 -17 0 l -17 47 q 17 48 31 58 q 46 67 59 103 z"},"f":{"x_min":0,"x_max":395,"ha":395,"o":"m 100 416 l 6 416 l 6 460 l 48 460 q 100 460 102 505 q 102 510 102 513 q 107 628 159 686 q 211 744 308 744 q 378 744 420 713 q 462 683 462 632 q 462 600 445 580 q 427 561 398 561 q 369 561 352 579 q 334 597 334 627 q 334 648 343 666 q 352 684 352 685 q 352 693 341 698 q 329 704 312 704 q 278 704 264 685 q 250 666 250 615 l 250 460 l 385 460 l 385 416 l 250 416 l 250 103 q 250 59 266 51 q 282 42 349 42 l 349 0 q 301 2 254 3 q 207 4 159 4 q 137 4 97 3 q 57 2 7 0 l 7 42 q 73 45 86 55 q 100 64 100 110 z"},"Q":{"x_min":0,"x_max":812,"ha":812,"o":"m 554 141 q 572 175 583 233 q 594 292 594 359 q 594 511 544 594 q 494 678 404 678 q 316 678 267 594 q 217 510 217 359 q 217 289 228 231 q 239 174 259 141 q 289 182 328 202 q 367 223 415 223 q 463 223 500 201 q 537 179 554 141 z m 596 42 q 604 -18 621 -42 q 638 -67 669 -67 q 692 -67 709 -49 q 727 -32 737 2 l 773 -8 q 756 -73 718 -106 q 679 -139 618 -139 q 550 -139 512 -105 q 474 -70 467 -3 q 451 -6 435 -7 q 419 -9 405 -9 q 244 -9 140 94 q 37 196 37 359 q 37 443 68 514 q 98 585 157 636 q 209 681 273 704 q 337 727 407 727 q 480 727 544 704 q 608 680 659 635 q 716 585 745 515 q 774 445 774 359 q 774 253 726 169 q 679 84 596 42 z m 463 48 q 458 97 435 122 q 412 148 372 148 q 348 148 325 137 q 303 126 281 105 q 301 74 335 56 q 370 39 411 39 q 423 39 436 41 q 448 43 463 48 z"},"w":{"x_min":0,"x_max":821,"ha":821,"o":"m 1 484 q 51 481 82 480 q 113 479 135 479 q 156 479 187 480 q 217 481 267 484 l 267 442 q 231 440 221 434 q 211 428 211 412 q 211 408 212 403 q 212 397 214 391 l 296 128 l 391 383 q 395 393 396 401 q 398 409 398 415 q 398 427 389 433 q 379 438 348 442 l 348 484 q 394 481 422 480 q 451 479 470 479 q 488 479 514 480 q 540 481 590 484 l 590 442 l 590 442 q 544 436 544 415 q 544 410 545 403 q 546 396 548 389 l 624 126 l 712 388 q 714 396 716 403 q 717 410 717 416 q 717 429 708 434 q 700 439 664 442 l 664 484 q 690 481 708 480 q 727 479 740 479 q 755 479 775 480 q 794 481 823 484 l 823 442 q 798 442 785 432 q 772 421 761 391 l 672 144 q 663 118 649 79 q 634 41 615 -9 l 526 -2 l 423 347 l 328 104 q 326 98 309 58 q 292 18 281 -9 l 191 -2 l 61 396 q 51 425 40 433 q 28 442 5 442 l 1 442 z"},"-":{"x_min":0,"x_max":316,"ha":316,"o":"m 35 303 l 278 303 l 278 193 l 35 193 z"},"E":{"x_min":0,"x_max":721,"ha":721,"o":"m 634 722 q 636 665 638 617 q 641 570 645 526 l 602 526 q 594 610 561 639 q 528 669 438 669 l 288 669 l 288 404 l 350 404 q 414 404 430 423 q 445 442 450 514 l 493 514 q 493 505 492 487 q 489 405 489 374 q 489 342 492 257 q 493 237 493 227 l 450 227 q 447 304 427 330 q 406 356 350 356 l 288 356 l 288 48 l 469 48 q 564 48 599 82 q 633 117 643 216 l 686 216 q 682 162 679 108 q 676 54 674 0 l 37 0 l 37 47 q 92 47 107 62 q 122 77 122 134 l 122 584 q 122 641 107 656 q 92 670 37 671 l 37 718 l 173 718 q 300 718 414 719 q 527 720 634 722 z"},"s":{"x_min":0,"x_max":492,"ha":492,"o":"m 378 448 l 385 481 l 421 481 l 421 412 l 421 341 l 385 341 q 376 392 344 419 q 312 447 262 447 q 219 447 194 430 q 169 413 169 385 q 169 338 277 306 q 299 300 311 296 q 390 271 420 239 q 451 206 451 150 q 451 79 395 35 q 338 -9 243 -9 q 203 -9 166 2 q 129 13 97 35 l 88 6 l 51 6 q 51 23 53 52 q 54 81 54 91 l 54 137 l 54 168 l 92 168 q 97 103 131 70 q 165 37 227 37 q 273 37 298 54 q 323 72 323 104 q 323 153 218 184 q 209 187 205 188 q 117 213 81 248 q 44 283 44 339 q 44 407 96 450 q 148 493 231 493 q 276 493 312 482 q 348 471 378 448 z"},">":{"x_min":0,"x_max":833,"ha":833,"o":"m 129 583 l 704 347 l 704 250 l 129 13 l 129 120 l 566 298 l 129 476 z"},"l":{"x_min":0,"x_max":328,"ha":328,"o":"m 88 637 q 88 668 75 678 q 62 688 6 689 l 6 732 q 60 733 119 737 q 178 740 238 744 l 238 110 q 238 62 251 53 q 264 43 310 42 l 311 0 q 246 3 214 4 q 182 5 162 5 q 142 5 109 4 q 77 3 17 0 l 17 42 q 64 45 76 55 q 88 66 88 110 z"},"8":{"x_min":0,"x_max":622,"ha":622,"o":"m 364 403 q 396 422 413 454 q 429 487 429 530 q 429 589 398 625 q 367 661 315 661 q 268 661 237 629 q 206 597 206 548 q 206 502 241 469 q 275 437 364 403 z m 251 312 q 215 292 194 254 q 173 216 173 172 q 173 112 210 75 q 248 39 310 39 q 365 39 399 72 q 434 105 434 156 q 434 209 395 244 q 355 278 251 312 z m 412 382 q 496 358 539 312 q 581 265 581 195 q 581 99 508 45 q 435 -9 304 -9 q 187 -9 114 43 q 40 95 40 176 q 40 235 82 278 q 124 321 201 341 q 136 363 104 405 q 71 447 71 510 q 71 600 137 654 q 204 708 315 708 q 423 708 485 662 q 546 616 546 534 q 546 480 511 441 q 476 401 412 382 z"},"\\":{"x_min":0,"x_max":340,"ha":340,"o":"m -9 727 l 62 727 l 360 -93 l 289 -93 z"},"e":{"x_min":0,"x_max":563,"ha":563,"o":"m 528 257 l 189 254 l 189 243 q 189 148 228 98 q 267 49 341 49 q 394 49 431 75 q 469 102 492 154 l 527 143 q 504 65 447 28 q 390 -9 294 -9 q 174 -9 103 59 q 32 126 32 241 q 32 354 103 424 q 173 493 289 493 q 397 493 463 432 q 528 371 528 270 z m 390 300 q 389 377 365 414 q 342 451 293 451 q 245 451 218 411 q 190 370 189 296 z"},"b":{"x_min":0,"x_max":605,"ha":605,"o":"m 217 327 l 217 92 q 236 68 260 55 q 284 42 310 42 q 364 42 388 87 q 411 133 411 241 q 411 338 388 382 q 365 426 314 426 q 280 426 252 398 q 225 370 217 327 z m 67 637 q 67 668 54 678 q 42 688 -3 689 l -3 732 q 50 733 105 736 q 160 739 217 744 l 217 416 q 250 456 286 474 q 323 493 368 493 q 456 493 512 426 q 569 359 569 254 q 569 134 506 63 q 443 -9 339 -9 q 272 -9 197 34 q 175 47 169 47 q 161 47 144 33 q 127 20 99 -9 l 67 -9 z"},"%":{"x_min":0,"x_max":877,"ha":877,"o":"m 666 385 q 630 385 611 338 q 591 291 591 206 q 591 115 609 71 q 627 27 664 27 q 699 27 719 74 q 739 122 739 206 q 739 294 720 340 q 702 385 666 385 z m 666 421 q 745 421 794 362 q 843 303 843 206 q 843 109 793 50 q 744 -9 665 -9 q 585 -9 536 50 q 487 108 487 206 q 487 302 537 362 q 587 421 666 421 z m 213 672 q 177 672 157 624 q 138 576 138 486 q 138 402 157 358 q 175 314 211 314 q 247 314 266 361 q 286 408 286 493 q 286 584 268 628 q 250 672 213 672 z m 634 708 l 694 708 l 243 -9 l 183 -9 z m 212 708 q 292 708 341 649 q 390 591 390 493 q 390 397 340 337 q 290 278 211 278 q 132 278 83 337 q 34 396 34 493 q 34 589 83 649 q 133 708 212 708 z"},"m":{"x_min":0,"x_max":981,"ha":981,"o":"m 93 382 q 93 417 80 427 q 68 437 14 438 l 14 480 q 80 482 134 486 q 188 489 234 493 l 234 386 q 268 438 314 466 q 360 493 414 493 q 478 493 515 466 q 553 438 560 386 q 594 440 638 467 q 683 493 740 493 q 815 493 854 450 q 892 408 892 325 l 892 105 q 892 62 903 53 q 915 44 953 42 l 953 0 q 896 3 866 4 q 836 5 817 5 q 798 5 767 4 q 736 3 676 0 l 676 42 q 724 46 736 55 q 747 64 747 110 l 747 327 q 747 374 730 396 q 713 418 677 418 q 637 418 606 390 q 576 362 564 314 l 564 110 q 564 63 576 54 q 587 44 626 42 l 626 0 q 569 3 539 4 q 509 5 490 5 q 471 5 440 4 q 409 3 349 0 l 349 42 q 397 46 409 55 q 420 64 420 110 l 420 327 q 420 373 403 395 q 385 418 350 418 q 310 418 279 390 q 249 362 237 314 l 237 110 q 237 64 248 55 q 259 45 298 42 l 298 0 q 237 3 207 4 q 177 5 159 5 q 139 5 107 4 q 76 3 15 0 l 15 42 q 70 47 81 56 q 93 66 93 110 z"},"#":{"x_min":0,"x_max":769,"ha":769,"o":"m 344 416 l 300 293 l 429 293 l 472 416 z m 347 715 l 452 715 l 380 512 l 504 512 l 577 715 l 681 715 l 609 512 l 747 512 l 711 415 l 575 415 l 532 294 l 675 294 l 640 198 l 498 198 l 426 -5 l 321 -5 l 393 198 l 269 198 l 196 -5 l 91 -5 l 163 198 l 22 198 l 58 294 l 198 294 l 241 415 l 93 415 l 129 512 l 275 512 z"},",":{"x_min":0,"x_max":311,"ha":311,"o":"m 84 -168 l 61 -132 q 112 -101 137 -69 q 163 -36 164 0 q 157 -2 150 -3 q 143 -4 135 -4 q 102 -4 81 18 q 60 40 60 76 q 60 114 84 136 q 108 159 148 159 q 188 159 213 128 q 239 97 239 48 q 239 -17 200 -71 q 162 -125 84 -168 z"},"n":{"x_min":0,"x_max":677,"ha":677,"o":"m 93 382 q 93 417 80 427 q 68 437 14 438 l 14 480 q 80 482 135 486 q 191 489 239 493 l 239 379 q 269 436 316 464 q 363 493 426 493 q 508 493 548 450 q 587 406 587 315 l 587 110 q 587 65 598 55 q 609 45 649 42 l 649 0 q 593 3 561 4 q 530 5 510 5 q 490 5 458 4 q 427 3 366 0 l 366 42 q 416 47 427 56 q 437 64 437 110 l 437 317 q 437 372 419 395 q 402 418 362 418 q 317 418 280 380 q 243 342 243 305 l 243 110 q 243 64 254 55 q 265 45 304 42 l 304 0 q 239 3 211 4 q 183 5 166 5 q 145 5 111 4 q 77 3 15 0 l 15 42 q 70 47 81 56 q 93 66 93 110 z"},"h":{"x_min":0,"x_max":684,"ha":684,"o":"m 242 744 l 242 380 q 280 438 327 466 q 373 493 433 493 q 518 493 556 450 q 595 407 595 311 l 595 110 q 595 64 606 54 q 617 45 657 42 l 657 0 q 601 3 569 4 q 538 5 518 5 q 498 5 465 4 q 432 3 373 0 l 373 42 q 420 46 433 55 q 445 64 445 110 l 445 316 q 445 375 429 397 q 413 418 374 418 q 326 418 284 374 q 242 331 242 282 l 242 110 q 242 64 253 55 q 263 45 303 42 l 303 0 q 236 3 208 4 q 180 5 165 5 q 144 5 110 4 q 76 3 14 0 l 14 42 q 69 47 80 56 q 92 65 92 110 l 92 637 q 92 667 80 677 q 68 687 17 689 l 17 732 q 71 733 128 737 q 185 740 242 744 z"},"z":{"x_min":0,"x_max":536,"ha":536,"o":"m 35 484 l 499 484 l 499 477 l 208 42 l 327 42 q 409 42 434 63 q 458 84 460 148 l 497 148 l 497 0 l 12 0 l 12 5 l 306 442 l 169 442 q 114 442 96 425 q 78 407 74 354 l 35 354 z"},"B":{"x_min":0,"x_max":718,"ha":718,"o":"m 285 342 l 285 50 l 346 50 q 432 50 465 83 q 497 117 497 204 q 497 278 464 310 q 430 342 350 342 z m 285 668 l 285 390 l 344 390 q 416 390 446 423 q 476 455 476 531 q 476 607 446 637 q 416 668 335 668 z m 37 718 q 68 716 103 715 q 137 714 178 714 q 249 714 320 716 q 391 718 392 718 q 519 718 581 675 q 643 631 643 543 q 643 463 594 420 q 545 376 447 367 q 557 360 615 315 q 673 270 673 191 q 673 91 607 45 q 542 0 394 0 q 363 0 294 2 q 226 4 188 4 q 139 4 40 0 l 37 0 l 37 47 q 92 47 107 62 q 122 77 122 134 l 122 584 q 122 641 107 656 q 92 670 37 671 z"},"K":{"x_min":0,"x_max":750,"ha":750,"o":"m 37 718 q 87 715 129 713 q 170 712 203 712 q 235 712 277 713 q 319 715 372 718 l 372 671 q 318 670 303 656 q 288 641 288 584 l 288 349 q 396 458 466 543 q 535 628 535 647 q 535 661 523 667 q 511 672 477 672 l 462 672 l 462 718 q 507 715 535 714 q 563 713 582 713 q 602 713 631 714 q 659 715 704 718 l 704 673 l 689 673 q 630 673 526 542 q 476 479 443 441 l 686 99 q 706 72 727 60 q 749 47 776 47 l 782 47 l 782 0 q 733 3 695 4 q 656 6 628 6 q 601 6 561 4 q 521 3 471 0 l 471 47 q 495 48 505 52 q 516 57 516 67 q 516 78 506 94 q 504 97 503 98 l 338 333 l 288 289 l 288 134 q 288 76 303 62 q 318 47 372 47 l 372 0 q 319 3 278 4 q 236 6 207 6 q 179 6 136 4 q 94 3 37 0 l 37 47 q 92 47 107 62 q 122 77 122 134 l 122 584 q 122 641 107 656 q 92 670 37 671 z"},"R":{"x_min":0,"x_max":753,"ha":753,"o":"m 288 385 l 299 385 l 319 385 q 406 385 442 418 q 478 452 478 533 q 478 604 444 637 q 411 670 338 670 q 331 670 314 669 q 297 667 288 667 z m 37 718 q 71 716 106 715 q 142 714 182 714 q 220 714 289 716 q 358 718 390 718 q 517 718 582 673 q 648 627 648 540 q 648 456 594 412 q 540 369 427 361 q 525 354 571 320 q 616 286 628 211 q 631 190 633 151 q 638 73 674 73 q 693 73 704 86 q 714 100 721 134 l 757 129 q 748 59 710 25 q 672 -9 604 -9 q 535 -9 504 28 q 473 65 473 149 l 473 200 q 473 284 444 310 q 414 335 329 335 l 288 335 l 288 134 q 288 76 303 62 q 318 47 372 47 l 372 0 q 319 3 278 4 q 236 6 207 6 q 179 6 136 4 q 94 3 37 0 l 37 47 q 92 47 107 62 q 122 77 122 134 l 122 584 q 122 641 107 656 q 92 670 37 671 z"},"T":{"x_min":0,"x_max":734,"ha":734,"o":"m 34 718 l 699 718 l 719 520 l 678 520 q 665 608 635 639 q 606 669 530 669 l 450 669 l 450 134 q 450 74 464 60 q 479 47 534 47 l 545 47 l 545 0 q 488 3 444 4 q 400 6 369 6 q 337 6 292 4 q 248 3 188 0 l 188 47 l 197 47 q 252 47 268 60 q 283 74 283 134 l 283 669 l 203 669 q 128 669 98 638 q 68 608 55 520 l 14 520 z"},"P":{"x_min":0,"x_max":677,"ha":677,"o":"m 287 365 q 296 365 315 363 q 333 362 342 362 q 415 362 449 400 q 483 438 483 520 q 483 599 448 634 q 413 669 335 669 l 287 669 z m 37 718 q 72 716 110 715 q 148 714 192 714 q 235 714 295 716 q 355 718 373 718 q 521 718 589 671 q 658 625 658 526 q 658 417 593 365 q 527 312 390 312 q 370 312 346 313 q 321 314 287 317 l 287 134 q 287 78 302 62 q 317 47 368 47 l 389 47 l 389 0 q 329 3 283 4 q 237 6 207 6 q 182 6 139 4 q 97 3 37 0 l 37 47 q 92 47 107 62 q 122 77 122 134 l 122 584 q 122 641 107 656 q 92 670 37 671 z"},"|":{"x_min":0,"x_max":500,"ha":500,"o":"m 200 764 l 301 764 l 301 -236 l 200 -236 z"},"t":{"x_min":0,"x_max":409,"ha":409,"o":"m 201 626 l 245 626 l 241 469 l 362 469 l 362 425 l 240 425 l 232 144 l 232 132 q 232 90 245 73 q 259 55 289 55 q 310 55 325 67 q 341 80 352 105 l 384 91 q 367 41 328 16 q 290 -9 230 -9 q 152 -9 118 29 q 83 67 83 156 l 83 170 l 90 425 l 36 425 l 36 460 q 104 483 144 524 q 185 565 201 626 z"},"M":{"x_min":0,"x_max":977,"ha":977,"o":"m 37 718 q 82 715 112 714 q 143 713 166 713 q 185 713 215 714 q 246 715 305 718 l 491 191 l 677 718 q 724 715 754 714 q 784 713 806 713 q 828 713 858 714 q 889 715 939 718 l 939 671 q 885 670 871 657 q 856 643 856 586 l 856 134 q 856 76 871 61 q 885 47 939 47 l 939 0 q 883 3 842 4 q 801 6 774 6 q 743 6 703 4 q 662 3 611 0 l 611 47 q 666 47 680 62 q 695 77 695 134 l 695 624 l 691 624 l 469 -1 l 393 5 l 176 624 l 171 624 l 165 149 l 165 136 q 165 79 181 63 q 197 47 247 47 l 247 0 q 214 2 186 3 q 159 4 142 4 q 116 4 47 1 q 32 0 23 0 l 23 47 q 81 48 98 63 q 114 78 115 143 l 122 618 l 122 622 q 122 653 108 662 q 94 671 37 671 z"},"g":{"x_min":0,"x_max":552,"ha":552,"o":"m 149 -36 q 125 -47 114 -63 q 102 -79 102 -100 q 102 -142 143 -165 q 183 -188 257 -188 q 336 -188 383 -165 q 429 -142 429 -103 q 429 -50 285 -44 q 202 -42 149 -36 z m 252 453 q 210 453 190 423 q 170 393 170 331 q 170 265 190 235 q 209 205 252 205 q 294 205 313 235 q 333 264 333 328 q 333 393 313 423 q 294 453 252 453 z m 542 498 q 544 492 545 485 q 546 478 546 469 q 546 448 538 437 q 530 426 514 426 q 503 426 482 435 q 461 445 453 445 q 446 445 440 440 q 434 436 427 426 q 445 405 454 380 q 463 355 463 326 q 463 251 405 207 q 346 163 246 163 l 202 163 q 174 163 161 155 q 148 147 148 130 q 148 105 173 95 q 198 85 294 82 q 436 78 489 48 q 541 18 541 -50 q 541 -132 461 -182 q 381 -231 247 -231 q 145 -231 86 -200 q 28 -168 28 -115 q 28 -77 54 -50 q 80 -22 128 -9 q 91 8 74 31 q 56 54 56 85 q 56 117 77 141 q 97 165 143 186 q 93 203 66 238 q 39 273 39 323 q 39 400 97 447 q 155 493 252 493 q 295 493 333 481 q 372 469 400 447 q 430 480 453 492 q 476 505 503 505 q 517 505 525 503 q 534 501 542 498 z"},"j":{"x_min":0,"x_max":331,"ha":331,"o":"m 160 720 q 194 720 218 698 q 242 676 242 645 q 242 611 220 591 q 198 571 162 571 q 130 571 106 594 q 83 616 83 647 q 83 680 104 700 q 125 720 160 720 z m 258 493 l 258 -16 q 258 -121 206 -176 q 155 -231 58 -231 q -10 -231 -53 -199 q -97 -167 -97 -119 q -97 -87 -78 -67 q -59 -47 -28 -47 q 0 -47 17 -64 q 34 -82 34 -110 q 34 -129 24 -148 q 13 -167 13 -170 q 13 -180 24 -185 q 34 -191 52 -191 q 84 -191 96 -171 q 109 -151 109 -85 l 109 382 q 109 418 94 428 q 80 438 11 438 l 11 480 q 86 482 147 486 q 208 489 258 493 z"},"i":{"x_min":0,"x_max":332,"ha":332,"o":"m 7 438 l 7 480 q 74 482 132 486 q 190 489 243 493 l 243 110 q 243 62 256 53 q 269 43 318 42 l 318 0 q 254 3 222 4 q 190 5 171 5 q 144 5 105 4 q 67 3 6 0 l 6 42 q 66 46 79 55 q 92 64 92 110 l 92 382 q 92 417 80 427 q 67 437 7 438 z m 166 716 q 200 716 219 698 q 237 680 237 647 q 237 614 208 586 q 178 558 142 558 q 111 558 92 576 q 74 595 74 625 q 74 659 103 688 q 131 716 166 716 z"},"y":{"x_min":0,"x_max":508,"ha":508,"o":"m -14 484 q 26 482 62 481 q 98 480 123 480 q 152 480 189 481 q 225 482 265 484 l 265 442 q 231 440 221 435 q 210 429 210 415 q 210 409 212 401 q 214 394 218 384 l 313 168 q 369 304 385 350 q 401 396 401 412 q 401 429 388 436 q 376 442 342 442 l 342 484 q 365 482 387 481 q 410 480 432 480 q 447 480 468 481 q 488 482 512 484 l 512 442 q 488 440 475 431 q 462 421 451 396 l 277 -32 q 229 -150 190 -191 q 150 -231 92 -231 q 55 -231 31 -212 q 8 -193 8 -164 q 8 -138 26 -121 q 45 -104 74 -104 q 106 -104 131 -126 q 155 -149 161 -149 q 176 -149 198 -108 q 221 -67 243 3 l 53 392 q 37 424 23 432 q 10 441 -14 442 z"},"@":{"x_min":0,"x_max":986,"ha":986,"o":"m 574 156 q 544 107 509 83 q 473 60 430 60 q 361 60 322 104 q 282 149 282 227 q 282 283 307 335 q 331 388 377 431 q 411 462 449 479 q 488 495 528 495 q 575 495 601 473 q 628 451 636 406 l 660 486 l 753 486 l 668 184 l 667 181 q 660 152 660 138 q 660 115 670 102 q 680 89 697 89 q 713 89 738 101 q 764 113 786 132 q 836 175 863 238 q 890 301 890 377 q 890 511 798 595 q 706 678 559 678 q 492 678 431 660 q 371 641 320 605 q 235 546 190 454 q 144 363 144 251 q 144 87 247 -9 q 350 -105 523 -105 q 604 -105 679 -80 q 754 -56 829 -4 l 848 -29 q 774 -84 693 -112 q 611 -139 523 -139 q 432 -139 353 -117 q 275 -94 218 -52 q 144 3 104 84 q 65 165 65 261 q 65 337 90 407 q 116 477 165 536 q 236 621 334 667 q 433 712 547 712 q 717 712 820 620 q 922 527 922 374 q 922 295 893 228 q 864 160 810 111 q 781 85 748 72 q 715 58 681 58 q 633 58 605 83 q 578 109 574 156 z m 546 463 q 516 463 491 441 q 466 419 442 371 q 414 315 399 266 q 385 217 385 177 q 385 138 402 115 q 418 93 447 93 q 478 93 508 123 q 537 153 564 212 q 583 257 595 302 q 606 348 606 382 q 606 421 590 442 q 575 463 546 463 z"},".":{"x_min":0,"x_max":311,"ha":311,"o":"m 156 157 q 190 157 212 134 q 234 111 234 75 q 234 39 212 15 q 190 -8 156 -8 q 122 -8 100 16 q 77 39 77 75 q 77 109 100 133 q 123 157 156 157 z"},"p":{"x_min":0,"x_max":630,"ha":630,"o":"m 238 133 q 254 100 280 83 q 306 65 336 65 q 386 65 411 114 q 437 162 437 255 q 437 338 413 382 q 389 425 342 425 q 312 425 285 406 q 258 387 238 351 z m 88 382 q 88 417 76 427 q 63 437 10 438 l 10 480 q 79 482 134 486 q 189 489 235 493 l 235 410 q 266 450 305 472 q 345 493 391 493 q 485 493 539 426 q 594 358 594 241 q 594 128 539 62 q 484 -3 392 -3 q 343 -3 306 14 q 269 31 238 66 l 238 -118 q 238 -164 250 -173 q 261 -182 325 -185 l 324 -228 q 268 -225 231 -224 q 195 -223 167 -223 q 142 -223 107 -224 q 72 -225 17 -228 l 17 -185 q 66 -181 77 -171 q 88 -162 88 -118 z"},"X":{"x_min":0,"x_max":697,"ha":697,"o":"m 12 718 q 33 717 70 715 q 150 712 177 712 q 207 712 294 716 q 327 717 344 718 l 344 671 q 310 671 297 664 q 283 656 283 639 q 283 632 286 624 q 289 616 295 606 l 391 449 l 505 616 q 511 625 513 632 q 516 640 516 646 q 516 659 502 665 q 488 671 457 671 l 457 718 q 462 718 472 717 q 544 712 574 712 q 587 712 632 715 q 659 717 675 718 l 675 671 l 670 671 q 635 671 613 659 q 592 648 569 616 l 419 407 l 617 105 q 639 71 656 59 q 672 47 693 47 l 698 47 l 698 0 q 616 3 586 4 q 556 5 541 5 q 512 5 472 4 q 431 3 362 0 l 362 47 q 403 49 417 56 q 431 62 431 78 q 431 85 428 94 q 425 104 419 113 l 301 300 l 175 117 q 167 105 163 95 q 158 84 158 77 q 158 63 171 55 q 185 47 207 47 l 217 47 l 217 0 q 173 3 146 4 q 120 5 100 5 q 83 5 1 0 l -1 0 l -1 47 l 3 47 q 35 47 56 59 q 78 71 108 113 l 272 343 l 101 609 q 76 646 59 659 q 41 671 17 671 l 12 671 z"},"*":{"x_min":0,"x_max":493,"ha":493,"o":"m 236 511 l 257 511 q 262 495 270 469 q 285 421 285 409 q 285 389 276 377 q 267 365 247 358 q 227 364 218 376 q 209 388 209 409 q 209 425 231 497 z m 215 536 l 225 518 q 215 507 198 489 q 148 434 121 434 q 113 434 104 438 q 95 442 87 450 q 87 451 86 453 q 85 462 85 467 q 85 491 106 505 q 127 518 215 536 z m 278 536 l 280 536 q 408 510 408 464 q 408 463 407 458 q 406 452 406 450 q 397 442 388 438 q 379 434 370 434 q 343 434 283 501 q 273 513 268 518 z m 225 566 l 215 549 q 209 550 197 553 q 85 576 85 621 q 85 623 86 631 q 87 634 87 635 q 97 643 105 647 q 113 651 121 651 q 148 651 205 588 q 218 574 225 566 z m 406 634 q 407 629 407 625 q 408 621 408 621 q 408 576 290 551 l 279 549 l 269 567 q 277 576 291 591 q 344 651 372 651 q 379 651 388 646 q 397 642 406 634 z m 247 727 q 268 719 276 708 q 285 696 285 676 q 285 663 267 606 q 261 586 257 574 l 236 574 q 233 583 228 601 q 208 662 208 677 q 208 696 217 708 q 227 720 247 727 z"},"Y":{"x_min":0,"x_max":644,"ha":644,"o":"m -19 718 q 36 715 77 713 q 117 712 142 712 q 172 712 213 713 q 254 715 308 718 l 308 671 q 273 670 260 664 q 247 657 247 642 q 247 637 248 633 q 250 628 252 623 l 387 380 l 506 603 q 507 606 510 610 q 519 628 519 636 q 519 655 503 663 q 487 671 447 671 l 447 718 q 455 717 469 716 q 531 712 553 712 q 569 712 619 716 q 641 717 652 718 l 652 671 q 624 669 609 661 q 595 652 579 624 l 412 326 l 412 134 q 412 76 427 62 q 443 47 495 47 l 502 47 l 502 0 q 446 3 404 4 q 361 6 331 6 q 303 6 259 4 q 215 3 157 0 l 157 47 l 169 47 q 216 47 231 62 q 246 78 246 134 l 246 313 l 65 615 q 43 652 27 662 q 11 671 -15 671 l -19 671 z"},"c":{"x_min":0,"x_max":558,"ha":558,"o":"m 498 158 l 530 142 q 498 65 439 28 q 381 -9 292 -9 q 170 -9 101 55 q 32 118 32 230 q 32 351 107 422 q 182 493 311 493 q 402 493 459 454 q 516 414 516 354 q 516 323 499 305 q 482 287 453 287 q 424 287 404 307 q 385 326 385 356 q 385 372 391 392 q 398 411 398 415 q 398 429 375 440 q 353 450 320 450 q 261 450 225 396 q 190 341 190 248 q 190 156 227 107 q 265 59 336 59 q 391 59 431 84 q 472 108 498 158 z"},"!":{"x_min":0,"x_max":402,"ha":402,"o":"m 202 153 q 236 153 259 130 q 282 107 282 73 q 282 37 260 14 q 237 -9 202 -9 q 167 -9 144 15 q 120 39 120 73 q 120 105 144 129 q 168 153 202 153 z m 201 727 q 241 714 261 683 q 281 651 281 601 q 281 580 259 447 q 237 314 223 205 l 179 205 q 165 314 142 447 q 120 580 120 601 q 120 650 141 682 q 161 714 201 727 z"},"/":{"x_min":0,"x_max":340,"ha":340,"o":"m 269 727 l 339 727 l 41 -93 l -30 -93 z"},"[":{"x_min":0,"x_max":397,"ha":397,"o":"m 328 738 l 337 694 q 314 687 292 683 q 269 679 245 679 l 237 679 l 237 -141 l 251 -141 q 272 -141 291 -145 q 310 -148 328 -156 l 337 -200 q 311 -192 286 -188 q 261 -184 238 -184 q 214 -184 190 -188 q 166 -192 138 -200 q 141 -144 142 -86 q 143 -28 143 31 l 143 506 q 143 565 142 623 q 141 681 138 738 q 160 730 183 726 q 207 722 234 722 q 259 722 283 726 q 306 730 328 738 z"},"6":{"x_min":0,"x_max":622,"ha":622,"o":"m 192 298 l 192 272 q 192 156 225 98 q 257 40 322 40 q 377 40 409 86 q 440 132 440 215 q 440 290 410 331 q 381 371 326 371 q 292 371 259 353 q 227 335 192 298 z m 451 627 q 435 644 412 652 q 390 660 359 660 q 278 660 237 584 q 195 507 190 351 q 228 391 272 411 q 317 431 368 431 q 467 431 528 375 q 588 319 588 227 q 588 118 518 54 q 448 -9 328 -9 q 187 -9 111 77 q 35 163 35 322 q 35 498 119 603 q 204 708 343 708 q 438 708 502 665 q 565 621 565 559 q 565 529 548 511 q 530 492 503 492 q 473 492 454 513 q 435 534 435 567 q 435 580 439 594 q 443 609 451 627 z"},"r":{"x_min":0,"x_max":486,"ha":486,"o":"m 93 382 q 93 417 80 427 q 68 437 14 438 l 14 480 q 79 482 133 486 q 188 489 235 493 l 235 372 q 253 429 290 461 q 327 493 374 493 q 420 493 447 469 q 473 445 473 403 q 473 371 455 351 q 437 331 409 331 q 376 331 359 349 q 341 368 341 402 q 341 414 344 426 q 347 438 354 451 q 307 445 275 387 q 243 329 243 243 l 243 110 q 243 65 258 54 q 273 43 347 42 l 347 0 q 298 2 254 3 q 210 4 172 4 q 145 4 104 3 q 62 2 15 0 l 15 42 q 67 45 80 54 q 93 64 93 110 z"},"2":{"x_min":0,"x_max":622,"ha":622,"o":"m 172 108 q 199 117 230 122 q 260 126 306 126 q 347 126 404 124 q 460 121 475 121 q 528 121 542 209 q 544 228 546 238 l 586 238 q 582 194 575 136 q 568 78 557 -2 q 532 -3 510 -4 q 488 -5 468 -5 q 417 -5 318 0 q 219 5 171 5 q 141 5 106 3 q 72 0 35 -4 l 28 6 q 53 54 86 94 q 120 133 165 169 l 182 182 q 388 346 388 484 q 388 563 350 605 q 312 648 241 648 q 182 648 142 615 q 102 583 95 530 q 136 525 161 502 q 187 479 187 447 q 187 417 170 399 q 153 382 125 382 q 84 382 57 413 q 31 445 31 495 q 31 588 102 648 q 174 708 286 708 q 404 708 474 651 q 544 595 544 500 q 544 419 498 357 q 451 295 309 209 q 300 204 284 193 q 193 139 172 108 z"},"{":{"x_min":0,"x_max":500,"ha":500,"o":"m 416 740 l 416 710 q 357 709 335 684 q 314 658 314 581 l 314 516 q 314 406 288 366 q 262 326 192 310 q 262 294 288 255 q 314 215 314 105 l 314 39 q 314 -38 335 -63 q 357 -89 416 -90 l 416 -119 q 301 -119 260 -84 q 218 -48 218 50 l 218 144 q 218 225 190 255 q 163 285 87 292 l 87 329 q 163 336 190 366 q 218 396 218 477 l 218 571 q 218 669 260 705 q 301 740 416 740 z"},"9":{"x_min":0,"x_max":622,"ha":622,"o":"m 156 80 q 173 60 198 49 q 223 38 254 38 q 334 38 377 107 q 419 175 419 306 l 419 316 q 390 282 346 265 q 302 247 248 247 q 156 247 96 308 q 36 369 36 464 q 36 574 109 641 q 182 708 303 708 q 434 708 507 615 q 580 522 580 354 q 580 186 497 89 q 414 -9 271 -9 q 172 -9 109 32 q 47 73 47 137 q 47 168 65 189 q 83 210 110 210 q 138 210 155 189 q 173 167 173 134 q 173 120 169 107 q 165 95 156 80 z m 419 367 l 419 382 l 419 412 q 419 539 390 600 q 360 660 299 660 q 245 660 215 616 q 185 571 185 490 q 185 405 216 360 q 247 315 305 315 q 337 315 368 329 q 399 343 419 367 z"}," ":{"x_min":0,"x_max":311,"ha":311,"o":""},"I":{"x_min":0,"x_max":409,"ha":409,"o":"m 36 718 q 86 715 128 713 q 170 712 203 712 q 236 712 279 713 q 321 715 374 718 l 374 671 q 318 671 303 656 q 288 642 288 584 l 288 134 q 288 76 303 62 q 318 47 374 47 l 374 0 q 320 3 278 4 q 236 6 207 6 q 179 6 136 4 q 93 3 36 0 l 36 47 q 92 47 107 62 q 122 77 122 134 l 122 584 q 122 642 107 656 q 92 671 36 671 z"},"H":{"x_min":0,"x_max":853,"ha":853,"o":"m 37 718 q 87 715 129 713 q 170 712 203 712 q 235 712 277 713 q 319 715 372 718 l 372 671 q 317 669 303 658 q 288 647 288 597 l 288 407 l 565 407 l 565 584 q 565 641 550 656 q 535 670 481 671 l 481 718 q 530 715 572 713 q 614 712 647 712 q 678 712 720 713 q 763 715 816 718 l 816 671 q 761 671 747 656 q 732 641 732 584 l 732 134 q 732 76 747 62 q 762 47 816 47 l 816 0 q 762 3 720 4 q 679 6 650 6 q 621 6 579 4 q 537 3 481 0 l 481 47 q 536 47 550 62 q 565 77 565 134 l 565 358 l 288 358 l 288 129 q 288 70 302 59 q 316 48 372 47 l 372 0 q 319 3 278 4 q 236 6 207 6 q 179 6 136 4 q 94 3 37 0 l 37 47 q 91 48 107 62 q 122 76 122 130 l 122 599 q 122 646 107 658 q 93 670 37 671 z"},"4":{"x_min":0,"x_max":622,"ha":622,"o":"m 336 607 l 94 270 l 333 270 z m 477 707 l 477 277 l 572 277 l 572 193 l 477 193 l 477 95 q 477 60 487 52 q 497 44 542 44 l 542 0 q 498 2 461 3 q 424 4 402 4 q 366 4 271 1 q 249 0 236 0 l 236 44 l 263 44 q 309 44 320 53 q 331 63 331 96 l 331 193 l 30 193 l 34 255 q 35 272 49 291 q 51 294 52 295 l 337 682 q 370 683 405 689 q 439 695 477 707 z"},"~":{"x_min":0,"x_max":833,"ha":833,"o":"m 747 392 l 747 284 q 696 250 651 233 q 606 217 562 217 q 540 217 517 221 q 495 225 472 232 q 460 236 438 244 q 331 281 275 281 q 233 281 188 262 q 143 244 87 204 l 87 312 q 139 347 187 365 q 234 382 276 382 q 333 382 418 354 l 420 353 q 429 350 447 344 q 522 317 564 317 q 605 317 649 335 q 693 353 747 392 z"},"D":{"x_min":0,"x_max":813,"ha":813,"o":"m 288 669 l 288 48 l 348 48 q 481 48 538 120 q 595 193 595 361 q 595 527 536 598 q 477 669 337 669 z m 37 718 q 62 716 89 715 q 116 714 148 714 q 198 714 278 716 q 357 718 387 718 q 569 718 672 622 q 775 526 775 357 q 775 184 677 92 q 579 0 393 0 q 366 0 295 2 q 225 5 182 5 q 146 5 109 4 q 73 2 37 0 l 37 47 q 92 47 107 62 q 122 77 122 134 l 122 584 q 122 641 107 656 q 92 670 37 671 z"},"^":{"x_min":0,"x_max":1000,"ha":1000,"o":"m 442 714 l 557 714 l 797 438 l 742 438 l 499 620 l 256 438 l 201 438 z"},"0":{"x_min":0,"x_max":622,"ha":622,"o":"m 313 661 q 253 661 222 578 q 190 494 190 337 q 190 189 220 114 q 250 38 309 38 q 368 38 400 119 q 432 201 432 349 q 432 507 403 584 q 373 661 313 661 z m 312 708 q 437 708 513 610 q 589 512 589 350 q 589 189 511 90 q 433 -9 310 -9 q 186 -9 110 89 q 34 187 34 350 q 34 511 112 609 q 189 708 312 708 z"},"F":{"x_min":0,"x_max":671,"ha":671,"o":"m 37 718 l 641 718 q 642 673 645 625 q 647 576 652 526 l 609 526 q 600 610 567 639 q 533 669 444 669 l 288 669 l 288 397 l 358 397 q 422 397 439 417 q 455 437 459 507 l 501 507 q 499 464 498 427 q 497 391 497 366 q 497 338 500 260 q 500 234 501 220 l 459 220 q 455 299 435 324 q 415 349 359 349 l 288 349 l 288 134 q 288 77 304 62 q 320 47 377 47 l 387 47 l 387 0 l 37 0 l 37 47 q 92 47 107 62 q 122 77 122 134 l 122 584 q 122 640 107 655 q 92 670 37 671 z"},"`":{"x_min":0,"x_max":500,"ha":500,"o":"m 212 693 l 347 548 l 299 548 l 144 631 q 118 645 108 657 q 97 670 97 686 q 97 706 111 719 q 124 733 144 733 q 160 733 177 723 q 193 714 212 693 z"},"k":{"x_min":0,"x_max":609,"ha":609,"o":"m 14 0 l 14 42 q 70 47 81 56 q 92 65 92 110 l 92 637 q 92 667 80 677 q 68 687 17 689 l 17 732 q 71 733 128 737 q 185 740 242 744 l 242 248 l 385 386 q 395 396 402 407 q 409 418 409 424 q 409 433 400 437 q 390 441 362 442 l 362 484 q 392 482 418 482 q 444 481 468 481 q 486 481 510 482 q 535 482 564 484 l 564 442 q 537 442 516 434 q 495 426 477 409 l 359 297 l 543 88 q 566 62 584 52 q 603 42 624 42 l 624 0 q 568 3 539 4 q 510 5 491 5 q 472 5 442 4 q 412 3 357 0 l 357 42 q 374 43 383 48 q 391 52 391 58 q 391 65 380 80 l 379 81 l 267 217 l 242 193 l 242 105 q 242 63 253 54 q 263 44 297 42 l 297 0 q 233 3 206 4 q 180 5 165 5 q 140 5 105 4 q 70 3 14 0 z"},"u":{"x_min":0,"x_max":675,"ha":675,"o":"m 88 382 q 88 416 76 426 q 65 436 14 438 l 14 480 q 83 482 137 486 q 192 489 238 493 l 238 153 q 238 101 256 79 q 275 57 317 57 q 355 57 385 76 q 414 96 432 132 l 432 382 q 432 416 420 426 q 409 436 358 438 l 358 480 q 425 482 480 486 q 535 489 582 493 l 582 106 q 582 64 592 55 q 602 47 639 45 l 639 3 l 589 3 q 552 3 514 2 q 476 1 437 0 l 434 70 q 403 31 357 11 q 311 -9 250 -9 q 169 -9 128 34 q 88 77 88 163 z"},"]":{"x_min":0,"x_max":397,"ha":397,"o":"m 69 738 q 92 730 115 726 q 138 722 163 722 q 188 722 211 726 q 235 729 259 737 q 257 701 256 654 q 255 608 255 506 l 255 31 q 255 -71 256 -117 q 257 -163 259 -200 q 233 -192 209 -189 q 185 -185 161 -185 q 134 -185 109 -189 q 84 -193 60 -201 l 69 -156 q 85 -148 103 -145 q 121 -141 140 -141 q 148 -141 152 -141 q 157 -142 160 -142 l 160 679 l 151 679 q 127 679 104 683 q 81 687 60 694 z"},"U":{"x_min":0,"x_max":814,"ha":814,"o":"m 35 718 q 85 715 127 713 q 168 712 201 712 q 233 712 275 713 q 317 715 370 718 l 370 671 q 316 671 301 656 q 286 642 286 584 l 286 262 q 286 150 326 107 q 366 64 462 64 q 559 64 601 112 q 642 160 642 278 l 642 576 q 642 644 626 657 q 611 671 558 671 l 558 718 q 571 717 595 716 q 648 712 665 712 q 682 712 733 716 q 754 717 765 718 l 765 671 q 723 670 710 658 q 697 645 697 589 l 697 340 q 697 245 691 201 q 686 157 672 127 q 642 59 576 25 q 510 -9 409 -9 q 328 -9 266 14 q 205 36 168 80 q 142 112 130 156 q 119 200 119 282 l 119 584 q 119 641 104 656 q 90 670 35 671 z"},"o":{"x_min":0,"x_max":583,"ha":583,"o":"m 290 451 q 240 451 215 398 q 190 346 190 242 q 190 137 215 85 q 240 33 291 33 q 343 33 369 85 q 394 136 394 242 q 394 349 368 400 q 343 451 290 451 z m 292 493 q 409 493 480 425 q 551 356 551 242 q 551 132 478 62 q 405 -9 292 -9 q 175 -9 104 60 q 32 129 32 242 q 32 352 106 422 q 179 493 292 493 z"},"N":{"x_min":0,"x_max":816,"ha":816,"o":"m 28 718 q 71 715 101 714 q 130 713 151 713 q 173 713 204 714 q 235 715 280 718 l 653 215 l 653 572 q 653 637 637 654 q 621 671 568 671 l 562 671 l 562 718 q 605 715 632 714 q 660 713 679 713 q 694 713 719 714 q 744 715 788 718 l 788 671 q 735 671 719 655 q 703 639 703 573 l 703 281 q 703 221 702 147 q 701 73 699 -8 l 612 0 l 168 599 l 168 145 q 168 78 184 62 q 200 47 258 47 l 258 0 q 207 3 182 4 q 156 5 141 5 q 128 5 106 4 q 83 3 30 0 l 30 47 q 86 47 102 63 q 118 79 118 145 l 118 584 q 118 642 103 656 q 87 671 28 671 z"},"+":{"x_min":0,"x_max":833,"ha":833,"o":"m 367 596 l 466 596 l 466 347 l 709 347 l 709 250 l 466 250 l 466 0 l 367 0 l 367 250 l 124 250 l 124 347 l 367 347 z"},"G":{"x_min":0,"x_max":775,"ha":775,"o":"m 621 670 l 633 713 l 672 713 l 672 671 l 672 602 l 672 555 q 672 526 672 509 q 672 491 673 474 l 630 474 q 623 572 571 625 q 520 677 431 677 q 324 677 271 595 q 218 513 218 348 q 218 189 266 116 q 313 42 416 42 q 476 42 507 59 q 539 77 539 109 l 539 200 q 539 254 434 256 q 423 257 417 257 l 417 301 q 485 298 524 297 q 563 296 589 296 q 611 296 647 297 q 683 298 748 301 l 748 257 q 714 254 705 246 q 696 238 696 212 l 696 29 l 627 64 q 575 27 517 9 q 458 -9 389 -9 q 227 -9 132 87 q 37 183 37 346 q 37 520 139 624 q 241 727 413 727 q 467 727 518 713 q 569 699 621 670 z"},"q":{"x_min":0,"x_max":613,"ha":613,"o":"m 388 390 q 377 412 356 425 q 335 437 308 437 q 253 437 224 388 q 195 340 195 247 q 195 155 221 110 q 248 65 302 65 q 329 65 351 78 q 373 91 388 116 z m 427 419 l 504 493 l 538 493 l 538 -136 q 538 -171 546 -177 q 554 -184 585 -185 l 585 -228 q 544 -226 512 -224 q 480 -223 453 -223 q 432 -223 398 -224 q 365 -225 298 -228 l 298 -185 q 363 -181 376 -172 q 388 -163 388 -118 l 388 62 q 358 30 322 14 q 286 -2 243 -2 q 150 -2 94 62 q 37 125 37 232 q 37 349 101 421 q 164 494 264 494 q 312 494 353 475 q 393 457 427 419 z"},"d":{"x_min":0,"x_max":630,"ha":630,"o":"m 391 375 q 371 406 350 419 q 329 432 299 432 q 246 432 220 384 q 194 336 194 239 q 194 147 220 102 q 247 56 299 56 q 325 56 348 69 q 372 81 391 106 z m 391 637 q 391 668 378 678 q 365 688 309 689 l 309 732 q 365 733 423 736 q 480 739 541 744 l 541 107 q 541 63 552 54 q 564 44 607 42 l 607 0 q 558 -1 505 -4 q 452 -6 396 -9 l 396 58 q 371 24 334 8 q 298 -9 250 -9 q 152 -9 94 57 q 36 123 36 233 q 36 352 95 422 q 154 493 251 493 q 297 493 331 479 q 365 465 391 436 z"},"1":{"x_min":0,"x_max":622,"ha":622,"o":"m 395 708 l 395 115 q 395 65 408 55 q 420 45 468 45 l 492 45 l 492 0 q 400 3 367 4 q 335 5 318 5 q 284 5 238 4 q 191 3 117 0 l 117 45 l 139 45 q 209 45 227 57 q 245 70 245 115 l 245 613 q 210 608 179 602 q 148 595 120 587 l 120 637 q 168 650 266 670 q 363 689 395 708 z"},"5":{"x_min":0,"x_max":622,"ha":622,"o":"m 543 712 l 569 686 q 519 612 480 587 q 441 563 371 563 q 339 563 285 568 q 232 573 130 586 q 124 538 119 488 q 113 437 109 384 q 154 422 206 441 q 258 460 319 460 q 437 460 509 397 q 580 335 580 231 q 580 123 500 57 q 421 -9 289 -9 q 181 -9 110 41 q 40 91 40 164 q 40 201 60 224 q 80 248 111 248 q 140 248 158 229 q 176 209 176 177 q 176 156 167 136 q 159 117 142 97 q 158 70 189 55 q 221 41 264 41 q 336 41 381 92 q 426 142 426 224 q 426 305 382 350 q 339 395 261 395 q 217 395 177 377 q 136 359 94 321 l 60 354 q 69 431 77 518 q 86 604 94 705 q 250 691 333 685 q 417 679 446 679 q 474 679 496 687 q 517 694 543 712 z"}}}
